<svg xmlns="http://www.w3.org/2000/svg" viewBox="0 0 154.41 154.7"><defs><style>.cls-1{fill:#00ffb0;}</style></defs><title>Asset 1</title><g id="Layer_2" data-name="Layer 2"><g id="Layer_1-2" data-name="Layer 1"><path class="cls-1" d="M11,95.2l10.19-2.32,1,4.29L3.66,101.39l-1-4.29,9-7.74L1.45,91.68l-1-4.29L19,83.17l1,4.42Z"/><path class="cls-1" d="M.74,66.47a2.1,2.1,0,0,1,2.39-2L17.65,65.6a2.09,2.09,0,0,1,2.06,2.33L19,77.45a2.09,2.09,0,0,1-2.38,2L2.06,78.33A2.09,2.09,0,0,1,0,76Zm4.21,3a.3.3,0,0,0-.33.28l-.29,3.76c0,.11.12.25.29.27l10.2.78a.27.27,0,0,0,.27-.23l.29-3.76a.29.29,0,0,0-.23-.32Z"/><path class="cls-1" d="M7.25,44.47A2.11,2.11,0,0,1,10,43.31l8.11,3.18a2.16,2.16,0,0,1,1.23,2.73l-.05.12,6.45.08L24,53.77l-6.46-.05-.74,1.9,5.62,2.2L20.7,62.28,3,55.34Zm3.09,4.08a.3.3,0,0,0-.35.13L8.54,52.37l4.72,1.85,1.45-3.69a.29.29,0,0,0-.15-.32Z"/><path class="cls-1" d="M19.22,26l3.31,2.46L20,31.84l12,8.88-2.85,3.85-12-8.89-2.51,3.38L11.35,36.6Z"/><path class="cls-1" d="M47.06,27.09,43.29,30l-4.65-6-3.58,2.8,4.65,5.95-3.77,3-11.71-15L28,17.84l4.47,5.73,3.58-2.79L31.57,15l3.78-2.94Z"/><path class="cls-1" d="M43.41,7.68,54.68,3.2,56.19,7,49.34,9.72l1.23,3.09,5.93-2.36L58,14.22l-5.93,2.36,1.27,3.19,6.85-2.72,1.52,3.82L50.44,25.36Z"/><path class="cls-1" d="M74.49,0a2.12,2.12,0,0,1,2.29,1.93l.86,8.66a2.16,2.16,0,0,1-1.87,2.34h-.14l2.87,5.78-4.65.46L71,13.42l-2,.2.59,6-4.76.47L62.89,1.16ZM72.27,4.62c0-.14-.17-.27-.28-.25l-3.94.39.5,5,3.94-.39a.29.29,0,0,0,.22-.27Z"/><path class="cls-1" d="M88.19,9.51,86.11,19.75l-4.31-.87L85.58.23l4.31.88,3.37,11.38L95.34,2.21l4.31.88L95.87,21.74l-4.44-.91Z"/><path class="cls-1" d="M115.16,9.92l4,2.59L111,25l5,3.22-2.24,3.45-9-5.81Z"/><path class="cls-1" d="M119.28,37.1l-3.42-3.3,13.21-13.69,3.42,3.31Z"/><path class="cls-1" d="M135.57,39l4.56,7.07-3.38,2.18L135.91,47l-4.59,3a2.11,2.11,0,0,1-3-.61l-5-7.81a2.14,2.14,0,0,1,.66-3l12.36-8a2.17,2.17,0,0,1,3,.64l6.24,9.66-3.43,2.22-4.67-7.23a.31.31,0,0,0-.41-.07l-8.57,5.54a.26.26,0,0,0-.09.38l2.09,3.24a.27.27,0,0,0,.4.1l2.7-1.74-1.36-2.11Z"/><path class="cls-1" d="M135.1,68.68l-1.26-4.62,7.28-2-1.19-4.38-7.29,2-1.26-4.62,18.35-5L151,54.67l-7,1.91,1.2,4.38,7-1.92,1.26,4.62Z"/><path class="cls-1" d="M154.2,84.24l-4.11-.07.06-4.21-14.9-.24.08-4.79,14.9.25L150.3,71l4.11.06Z"/><path class="cls-1" d="M139,86.83l-1.72,6.75a.26.26,0,0,0,.17.35l2.68.68c.13,0,.27,0,.32-.23l1.18-4.64a2.08,2.08,0,0,1,2.69-1.55l7,1.77a2.09,2.09,0,0,1,1.62,2.66l-2.38,9.3-4-1,1.66-6.5a.29.29,0,0,0-.23-.35l-2.7-.68a.28.28,0,0,0-.32.2l-1.18,4.64a2.1,2.1,0,0,1-2.69,1.56L134.15,98a2.08,2.08,0,0,1-1.62-2.65L135,85.82Z"/><path class="cls-1" d="M41.11,130a1.49,1.49,0,0,1,.27,2.2l-6.28,8.2a1.48,1.48,0,0,1-2.18.32l-5.38-4.12a1.48,1.48,0,0,1-.26-2.19l6.28-8.21a1.48,1.48,0,0,1,2.18-.31Zm-3.37,1.37a.23.23,0,0,0,0-.31l-2.12-1.62a.22.22,0,0,0-.28.07l-4.41,5.76a.19.19,0,0,0,0,.25l2.13,1.62a.2.2,0,0,0,.28,0Z"/><path class="cls-1" d="M52.53,136.23a1.49,1.49,0,0,1,.67,2l-2.69,5.56a1.53,1.53,0,0,1-2,.72l-.09,0L48,149l-3-1.45.39-4.56-1.3-.63-1.86,3.85-3.06-1.48,5.89-12.14Zm-3.05,2a.22.22,0,0,0-.07-.26l-2.53-1.22-1.57,3.23,2.53,1.23a.2.2,0,0,0,.23-.09Z"/><path class="cls-1" d="M60,144.11l5.78,1.46-.69,2.77L64,148.08l-1,3.76A1.49,1.49,0,0,1,61.21,153l-6.39-1.61a1.51,1.51,0,0,1-1.1-1.86l2.54-10.12a1.53,1.53,0,0,1,1.85-1.1l7.9,2-.7,2.81-5.92-1.49a.22.22,0,0,0-.25.16l-1.76,7a.2.2,0,0,0,.14.24l2.65.67a.2.2,0,0,0,.26-.14l.55-2.21-1.72-.44Z"/><path class="cls-1" d="M78.81,154.7l-3.39-.15.14-3.35-3-.13-.14,3.36-3.4-.14.5-11.91a1.48,1.48,0,0,1,1.61-1.51l6.69.28a1.49,1.49,0,0,1,1.47,1.64Zm-3.13-6.42.17-4.05a.42.42,0,0,0-.45-.42l-2.1-.09a.4.4,0,0,0-.43.38l-.17,4.06Z"/><path class="cls-1" d="M86.64,146.55l1.2,7.31-3.08.51-2.17-13.32,3.08-.5,5.08,6.7-1.2-7.33,3.08-.5,2.17,13.31-3.17.51Z"/><path class="cls-1" d="M103.46,150l-3.19,1.08L96,138.3l3.2-1.08Z"/><path class="cls-1" d="M114.9,139.15l1.61,3.1a1.53,1.53,0,0,1-.66,2.08l-5.87,3a1.49,1.49,0,0,1-2-.67l-4.8-9.27a1.52,1.52,0,0,1,.63-2l5.87-3a1.55,1.55,0,0,1,2.07.64l1.6,3.09-3,1.56-.87-1.67a.2.2,0,0,0-.25-.11L107,137a.2.2,0,0,0-.09.29l3.34,6.44a.2.2,0,0,0,.28.08l2.2-1.14a.19.19,0,0,0,.06-.26l-.88-1.7Z"/><path class="cls-1" d="M119.67,138.5l3.9-3c.1-.09.12-.2.05-.28l-1.2-1.54a.19.19,0,0,0-.28,0l-2.68,2.09a1.48,1.48,0,0,1-2.18-.29l-3.14-4a1.48,1.48,0,0,1,.24-2.19l5.37-4.19,1.78,2.28-3.75,2.93a.21.21,0,0,0,0,.29L119,132.1a.18.18,0,0,0,.26,0l2.68-2.08a1.48,1.48,0,0,1,2.19.29l3.11,4a1.49,1.49,0,0,1-.24,2.2l-5.51,4.29Z"/><path class="cls-1" d="M14.66,116.19a.17.17,0,0,0-.19.17v2.4h3.35v1.79H12.37v-5.08a1.09,1.09,0,0,1,1.2-1.09h2a.18.18,0,0,0,.19-.18V112a.18.18,0,0,0-.19-.19h-3V110h4.09a1.17,1.17,0,0,1,1.2,1.21V115a1.17,1.17,0,0,1-1.2,1.2Z"/><path class="cls-1" d="M26.47,111.18v8.22a1.14,1.14,0,0,1-1.2,1.2H21.69a1.15,1.15,0,0,1-1.2-1.2v-8.22a1.14,1.14,0,0,1,1.2-1.2h3.58A1.14,1.14,0,0,1,26.47,111.18Zm-2.29,7.67a.16.16,0,0,0,.18-.17v-6.77a.16.16,0,0,0-.18-.17h-1.4a.17.17,0,0,0-.19.17v6.77a.17.17,0,0,0,.19.17Z"/><path class="cls-1" d="M128,110.85l2.42-.81h1.76v8.7h2.17v1.81h-6.56v-1.81h2.31V112l-1.79.41Z"/><path class="cls-1" d="M139.1,116.19a.17.17,0,0,0-.19.17v2.4h3.35v1.79h-5.45v-5.08a1.09,1.09,0,0,1,1.2-1.09h2a.18.18,0,0,0,.19-.18V112a.18.18,0,0,0-.19-.19h-3V110h4.09a1.17,1.17,0,0,1,1.2,1.21V115a1.17,1.17,0,0,1-1.2,1.2Z"/><path class="cls-1" d="M93.79,68.26c.4-.53.22-2.39.66-2.39s.18,1.86.51,2.24a1.63,1.63,0,0,0,1.57.59c.78-.08.82.21.82.29s-.07.27-.82.27-1.3.06-1.53.42h0c-.4.53-.23,2.39-.67,2.39s-.18-1.86-.51-2.24a1.69,1.69,0,0,0-1.57-.59c-.82.06-.82-.23-.82-.3s.07-.26.82-.26,1.31-.06,1.53-.42Z"/><path class="cls-1" d="M50.85,74c.4-.53.22-2.39.67-2.39s.17,1.86.5,2.23a1.63,1.63,0,0,0,1.58.6c.78-.09.82.21.82.28s-.07.27-.82.27-1.31.07-1.53.43h0c-.4.54-.22,2.4-.66,2.4s-.18-1.86-.51-2.24a1.72,1.72,0,0,0-1.58-.6c-.81.07-.81-.22-.81-.3s.06-.25.81-.25,1.31-.07,1.53-.42Z"/><path class="cls-1" d="M74.63,31c.4-.53.22-2.39.66-2.39s.18,1.86.51,2.23a1.62,1.62,0,0,0,1.57.6c.79-.09.82.21.82.28s-.06.27-.82.27-1.3.07-1.52.43h0c-.4.54-.22,2.4-.67,2.4S75,33,74.67,32.57A1.69,1.69,0,0,0,73.1,32c-.82.07-.82-.22-.82-.3s.07-.25.82-.25,1.31-.07,1.53-.42Z"/><path class="cls-1" d="M66.8,70.25l.45-22.7a.46.46,0,0,1,.47-.45.48.48,0,0,1,.45.45l.44,22.7a.91.91,0,1,1-1.81,0Z"/><path class="cls-1" d="M60.77,80.32l.45-22.7a.46.46,0,0,1,.46-.45.48.48,0,0,1,.46.45l.44,22.7a.91.91,0,0,1-1.81,0Z"/><path class="cls-1" d="M87.77,93.49l.44-12.22a.46.46,0,0,1,.92,0l.44,12.22a.91.91,0,0,1-.87.94.89.89,0,0,1-.93-.87Z"/><path class="cls-1" d="M66.8,86.91l.45-12.58a.46.46,0,0,1,.47-.45.47.47,0,0,1,.45.45l.44,12.58A.91.91,0,0,1,66.8,87Z"/><path class="cls-1" d="M74.26,64.47l.44-22.7a.46.46,0,0,1,.92,0l.44,22.7a.9.9,0,1,1-1.8,0Z"/><path class="cls-1" d="M82.17,58.81l.44-22.69a.46.46,0,0,1,.47-.45.45.45,0,0,1,.45.45L84,58.81a.9.9,0,0,1-1.8,0Z"/><path class="cls-1" d="M90.54,50.92,91,36.16a.47.47,0,0,1,.48-.45.47.47,0,0,1,.44.45l.44,14.76a.9.9,0,0,1-1.8.06Z"/><path class="cls-1" d="M101,90.44l.75-2.79L99,88.41a35,35,0,0,0-13.61,6.88c.78-7.2-.18-16.92-6.57-28.05l-1.43-2.5L76,67.24c-6.25,10.92-7.37,20.55-6.5,28.12a35.19,35.19,0,0,0-13.73-7l-2.78-.76.75,2.79C56,99.08,60.31,104.54,64.58,108a23.16,23.16,0,0,0-6.83,2.66l-2.5,1.43,2.5,1.44a21.24,21.24,0,0,0,10.63,3.06,17.28,17.28,0,0,0,7.34-1.62v10.85H79V115a17.38,17.38,0,0,0,7.31,1.6A21.24,21.24,0,0,0,97,113.5l2.5-1.44L97,110.63a16.2,16.2,0,0,0-7.33-2.21C93.83,105.18,98.52,99.68,101,90.44ZM73.48,82.07h0c.11-.45.23-.91.35-1.37l0-.07c.11-.41.24-.84.37-1.26a3,3,0,0,1,.1-.32q.17-.56.36-1.11c.06-.19.13-.37.2-.56l.33-.92a51.62,51.62,0,0,1,2.18-4.92c9.53,18.84,3,32.69,0,37.51C75,105.19,70.3,95.49,73.48,82.07ZM57.81,92.52a28.72,28.72,0,0,1,12.72,8.55,38.72,38.72,0,0,0,3.34,8.42l-.17-.06-.51-.2-.45-.18-.56-.24a4.54,4.54,0,0,1-.45-.21l-.62-.29-.45-.24-.65-.36C65.79,105.32,60.8,100.85,57.81,92.52Zm4.58,19.54A16.28,16.28,0,0,1,69,110.9a26.72,26.72,0,0,0,3.74,1.66A15.27,15.27,0,0,1,62.39,112.06Zm18.27,0a15.08,15.08,0,0,1,11.67,0A15,15,0,0,1,80.66,112.07Zm.29-2.58A38.37,38.37,0,0,0,84.34,101a28.59,28.59,0,0,1,12.57-8.45C92.93,103.67,85.47,107.9,81,109.49Z"/><path class="cls-1" d="M82.64,89.37a12.17,12.17,0,0,1,1.55.47,6,6,0,0,1,2.11,1.28,2.55,2.55,0,0,1,.84,1.81A3.63,3.63,0,0,1,86.41,95a11.61,11.61,0,0,1-4.23,3.36h0a1.2,1.2,0,1,0,1.1,2.14,14,14,0,0,0,5.18-4.08,6.11,6.11,0,0,0,1.23-3.53,4.88,4.88,0,0,0-.43-2,5.77,5.77,0,0,0-1.11-1.61,8.84,8.84,0,0,0-3-1.91,13.78,13.78,0,0,0-2.2-.65,3.66,3.66,0,0,1,.11.88A3.76,3.76,0,0,1,82.64,89.37Z"/><path class="cls-1" d="M98.31,39.81a.5.5,0,0,0-.62.35,18.79,18.79,0,0,1-2.45,5.3,37.92,37.92,0,0,1-3.7,4.61,82.3,82.3,0,0,1-9,7.9c-3.15,2.47-6.47,4.69-9.82,7a56.67,56.67,0,0,0-4.92,3.76,31,31,0,0,0-4.36,4.56,12.9,12.9,0,0,0-2.73,6.07,7.14,7.14,0,0,0,.47,3.61,7.73,7.73,0,0,0,2.15,2.9,13.5,13.5,0,0,0,6.05,2.75c.5.1,1,.19,1.51.25a3.67,3.67,0,0,1-.2-1.19A3.85,3.85,0,0,1,71,86.16c-.35,0-.71-.11-1.06-.18a11.31,11.31,0,0,1-4.88-2.16,4.65,4.65,0,0,1-1.76-4.23,10.43,10.43,0,0,1,2.18-4.84,28.62,28.62,0,0,1,4-4.21,53.87,53.87,0,0,1,4.67-3.63c3.29-2.32,6.63-4.68,9.77-7.27a70.8,70.8,0,0,0,8.89-8.43,33.41,33.41,0,0,0,3.63-5,18.63,18.63,0,0,0,2.24-5.8h0A.5.5,0,0,0,98.31,39.81Z"/></g></g></svg>