<svg xmlns="http://www.w3.org/2000/svg" viewBox="0 0 508.61 397.19"><defs><style>.cls-1{fill:#00ffb0;}</style></defs><title>Asset 3</title><g id="Layer_2" data-name="Layer 2"><g id="Layer_1-2" data-name="Layer 1"><path class="cls-1" d="M24.31,79.39l13.91,30-12.92,6L0,60.85l12.92-6L43.17,77.31l-14-30,12.92-6,25.3,54.49L54.13,102Z"/><path class="cls-1" d="M103.66,20.34a6.68,6.68,0,0,1,8.8,4.63l13.65,43.94a6.68,6.68,0,0,1-4.63,8.8L92,86.87a6.68,6.68,0,0,1-8.8-4.63L69.54,38.3a6.69,6.69,0,0,1,4.63-8.8ZM99.73,36.19a1,1,0,0,0-1.22-.64L86.86,39.16a1,1,0,0,0-.47,1.18L96,71.19a.87.87,0,0,0,1,.53l11.65-3.62a.91.91,0,0,0,.69-1.06Z"/><path class="cls-1" d="M173.74,5.62a6.76,6.76,0,0,1,7.81,5.52l4.67,27.11a6.89,6.89,0,0,1-5.52,7.81l-.44.08,10.51,17.51-14.91,2.57-10.6-17.5-6.49,1.12L162,68.61l-15.26,2.62L136.55,12Zm-6.17,15.06a1,1,0,0,0-.94-.74L154,22.12l2.72,15.79,12.63-2.18a.94.94,0,0,0,.65-.92Z"/><path class="cls-1" d="M243.14,0l.69,13-13.6.73,2.53,47-15.47.84-2.53-47-13.6.73-.7-13Z"/><path class="cls-1" d="M306.08,62.93l-15.47-1,1.54-23.8-14.66-.94L276,61,260.5,60l3.85-60L279.8,1,278.34,24l14.65.94L294.47,2l15.45,1Z"/><path class="cls-1" d="M337,6.69l38.54,7.39-2.43,12.67-23.42-4.49-2,10.32L368,36.46l-2.41,12.59-20.27-3.89-2,10.67,23.43,4.48L364.2,73.07l-38.54-7.38Z"/><path class="cls-1" d="M435.73,31.89a6.75,6.75,0,0,1,4.35,8.52l-8.47,26.16a6.88,6.88,0,0,1-8.52,4.36l-.42-.14,1.16,20.4-14.4-4.66L408.19,66.1l-6.27-2-5.87,18.12-14.74-4.77,18.51-57.16ZM423.27,42.35a1,1,0,0,0-.49-1.09l-12.19-3.95-4.94,15.24,12.19,4a.94.94,0,0,0,1-.51Z"/><path class="cls-1" d="M467.88,74.32,453.63,104.1,440.78,98l25.94-54.18,12.84,6.14,1.92,37.62,14.29-29.86,12.84,6.15L482.68,118l-13.24-6.34Z"/><path class="cls-1" d="M88.14,103,103,98.83l12.74,45.31L134.12,139l3.51,12.51-33.24,9.34Z"/><path class="cls-1" d="M168.83,145.4l-15.14,2.84L142.63,89.17l15.14-2.84Z"/><path class="cls-1" d="M206.57,103.55l27.14-2.22,1,12.68-5,.41,1.41,17.2a6.75,6.75,0,0,1-6.28,7.39l-30,2.45a6.82,6.82,0,0,1-7.48-6.27L183.68,88.9a6.92,6.92,0,0,1,6.37-7.31l37.07-3,1,12.86-27.76,2.26a1,1,0,0,0-.8,1l2.62,32.11a.88.88,0,0,0,1,.81l12.41-1a.88.88,0,0,0,.91-1l-.83-10.11-8.07.66Z"/><path class="cls-1" d="M299.23,140.26l-15.46-.78L285,115.66l-14.66-.74-1.2,23.82L253.63,138l3-60,15.47.78L271,101.67l14.67.74,1.15-22.93,15.47.77Z"/><path class="cls-1" d="M365.51,89.89l-2.19,12.81-13.42-2.3L342,146.81l-15.26-2.61,7.93-46.4-13.42-2.3,2.19-12.8Z"/><path class="cls-1" d="M371.76,139.66l21.63,6.24a.85.85,0,0,0,1.16-.5L397,137c.12-.43-.12-.87-.72-1l-14.88-4.29a6.68,6.68,0,0,1-4.8-8.7l6.28-21.8a6.69,6.69,0,0,1,8.71-4.81L421.4,105l-3.58,12.4-20.86-6a.92.92,0,0,0-1.13.69l-2.44,8.46a.88.88,0,0,0,.63,1l14.88,4.29a6.68,6.68,0,0,1,4.81,8.7l-6.24,21.63a6.68,6.68,0,0,1-8.7,4.81l-30.61-8.82Z"/><path class="cls-1" d="M122.68,273.72a4.45,4.45,0,0,1,4.59,4.61v36.52a4.44,4.44,0,0,1-4.59,4.6H111.14a4.41,4.41,0,0,1-4.6-4.6V278.33a4.42,4.42,0,0,1,4.6-4.61Zm-2.94,7c0-.41-.26-.74-.4-.74h-4.93c-.33,0-.33.47-.33.74v31.66c0,.2.07.6.33.6h4.93c.14,0,.4-.27.4-.6Z"/><path class="cls-1" d="M159.48,304.12H157v15h-7.53v-45h15.13c3.33,0,5.4,2.19,5.4,5.53v18.93a5.14,5.14,0,0,1-3.34,5.2l3.4,15.33h-7.39Zm3.14-22.86c0-.33-.27-.67-.47-.67H157v17.33h5.2c.2,0,.47-.33.47-.6Z"/><path class="cls-1" d="M196.49,319.45a5.09,5.09,0,0,1-5.4-5.46V279.26c0-3.4,2.06-5.54,5.4-5.54h14.33v7H199.09c-.2,0-.47.33-.47.73v30.39c0,.4.27.67.47.67h4.39c.34,0,.54-.27.54-.67V298h-2.53v-6.33H213V298h-2.2v16a5.14,5.14,0,0,1-5.46,5.46Z"/><path class="cls-1" d="M252.62,319.12h-7.39V306.06h-5.34v13.06h-7.4V278.73a4.4,4.4,0,0,1,4.54-4.6h11a4.4,4.4,0,0,1,4.59,4.6Zm-7.39-19.26v-18.2a.94.94,0,0,0-.94-1h-3.47a.93.93,0,0,0-.93,1v18.2Z"/><path class="cls-1" d="M281.1,293.79v25.33h-6.33v-45H281l8.53,27.06V274.13h6.33v45h-6.2Z"/><path class="cls-1" d="M325.57,319.12h-7.14v-45h7.14Z"/><path class="cls-1" d="M367.77,302.32v11.74a5.07,5.07,0,0,1-5.33,5.46H353.1a5.17,5.17,0,0,1-5.4-5.46v-34.8a5.16,5.16,0,0,1,5.4-5.54h9.34c3.26,0,5.33,2.14,5.33,5.54v11.53h-7.46V281c0-.4-.27-.73-.47-.73H355.7c-.26,0-.46.33-.46.73v31.33c0,.4.2.67.46.67h4.14c.2,0,.47-1.27.47-1.67v-9Z"/><path class="cls-1" d="M386.58,312.39h8.73c.4,0,.53-.27.53-.6V300.52c0-.33-.13-.6-.53-.6h-4.2a4.39,4.39,0,0,1-4.53-4.6V278.73a4.39,4.39,0,0,1,4.53-4.6h11.8v6.46h-8.47c-.27,0-.47.34-.47.74v11c0,.27.2.6.47.6h4.27a4.45,4.45,0,0,1,4.6,4.6v17a4.44,4.44,0,0,1-4.6,4.6H386.58Z"/><path class="cls-1" d="M170.41,368.46h13.52v4.87h-7.79v6.91h6.56V385h-6.56v7.16h7.79v4.87H170.41Z"/><path class="cls-1" d="M191.73,392.06h7.46a.36.36,0,0,0,.38-.38v-6a.36.36,0,0,0-.38-.38h-4.41a3,3,0,0,1-3.05-3.09V371.55a3,3,0,0,1,3.05-3.09H205v4.87h-7.16a.45.45,0,0,0-.39.47v5.93a.42.42,0,0,0,.39.38h4.4a3,3,0,0,1,3.1,3.1V394a3,3,0,0,1-3.1,3.09H191.73Z"/><path class="cls-1" d="M226.68,368.46v4.87H222v23.73H216.3V373.33h-4.66v-4.87Z"/><path class="cls-1" d="M251.21,385.2a.46.46,0,0,0-.51.46v6.53h9.12v4.87H245V383.25a3,3,0,0,1,3.26-3h5.42a.49.49,0,0,0,.51-.51v-6.06a.49.49,0,0,0-.51-.5H245.5v-4.75h11.14a3.2,3.2,0,0,1,3.26,3.3v10.17a3.19,3.19,0,0,1-3.26,3.27Z"/><path class="cls-1" d="M285.23,371.55v22.37a3.09,3.09,0,0,1-3.26,3.27h-9.74a3.12,3.12,0,0,1-3.26-3.27V371.55a3.11,3.11,0,0,1,3.26-3.26H282A3.09,3.09,0,0,1,285.23,371.55ZM279,392.44a.46.46,0,0,0,.51-.47V373.55a.46.46,0,0,0-.51-.47h-3.82a.45.45,0,0,0-.5.47V392a.45.45,0,0,0,.5.47Z"/><path class="cls-1" d="M293.46,370.66l6.6-2.2h4.79v23.69h5.89v4.91H292.91v-4.91h6.27V373.71l-4.88,1.1Z"/><path class="cls-1" d="M324.81,385.2a.45.45,0,0,0-.51.46v6.53h9.11v4.87H318.58V383.25a3,3,0,0,1,3.26-3h5.43a.49.49,0,0,0,.5-.51v-6.06a.48.48,0,0,0-.5-.5h-8.18v-4.75h11.14a3.2,3.2,0,0,1,3.27,3.3v10.17a3.19,3.19,0,0,1-3.27,3.27Z"/><polygon class="cls-1" points="156.58 211.04 148.8 199.36 141.01 211.04 148.8 222.71 156.58 211.04"/><path class="cls-1" d="M254.81,229.43s12,11.51,38.19,9.76C271.66,223.91,254.81,229.43,254.81,229.43Z"/><path class="cls-1" d="M287.6,240.5c-22.6,0-33.1-9.8-33.57-10.25a1.13,1.13,0,0,1-.32-1.07,1.14,1.14,0,0,1,.75-.83c.71-.23,17.64-5.52,39.19,9.92a1.13,1.13,0,0,1-.58,2C291.17,240.44,289.35,240.5,287.6,240.5ZM257.39,230c3.95,2.77,14.43,8.63,32.16,8.2-9.61-6.17-18-8-23.61-8.49A35.93,35.93,0,0,0,257.39,230Z"/><path class="cls-1" d="M254.81,229.43s26.22,5.24,55.05-18.58C272.46,210.94,254.81,229.43,254.81,229.43Z"/><path class="cls-1" d="M261.68,231.09a38.23,38.23,0,0,1-7.09-.55,1.13,1.13,0,0,1-.6-1.89c.74-.77,18.42-18.84,55.87-18.93a1.13,1.13,0,0,1,1.06.75,1.11,1.11,0,0,1-.34,1.25C290.33,228.45,271.51,231.09,261.68,231.09Zm-4.28-2.48c6.76.55,27,.47,49.15-16.57-17.32.57-29.93,5.19-37.62,9.09A60.35,60.35,0,0,0,257.4,228.61Z"/><path class="cls-1" d="M254.81,229.43s29-14.21,41.75-56.22C260,197.57,254.81,229.43,254.81,229.43Z"/><path class="cls-1" d="M254.81,230.56a1.1,1.1,0,0,1-.67-.22,1.15,1.15,0,0,1-.45-1.09c.06-.33,5.72-32.63,42.24-57a1.11,1.11,0,0,1,1.3,0,1.14,1.14,0,0,1,.41,1.24c-6.66,21.92-17.78,36.21-25.94,44.34-8.87,8.83-16.09,12.42-16.39,12.57A1.25,1.25,0,0,1,254.81,230.56ZM294.47,176c-27.71,19.62-36,43.54-38,51.15C263.2,223,283.73,208.18,294.47,176Z"/><path class="cls-1" d="M254.81,229.48s-12,11.5-38.18,9.75C238,224,254.81,229.48,254.81,229.48Z"/><path class="cls-1" d="M222,240.55c-1.76,0-3.58-.06-5.48-.19a1.13,1.13,0,0,1-.58-2.05c21.56-15.43,38.48-10.14,39.19-9.91a1.11,1.11,0,0,1,.75.82,1.14,1.14,0,0,1-.31,1.07C255.13,230.74,244.62,240.55,222,240.55Zm-1.95-2.29c17.76.45,28.21-5.42,32.15-8.19C247.36,229.28,235,228.66,220.08,238.26Z"/><path class="cls-1" d="M254.81,229.48s-26.22,5.23-55.05-18.58C237.16,211,254.81,229.48,254.81,229.48Z"/><path class="cls-1" d="M247.94,231.13c-9.83,0-28.64-2.63-48.9-19.36a1.14,1.14,0,0,1,.72-2h0c37.44.1,55.13,18.16,55.86,18.93a1.12,1.12,0,0,1,.26,1.13,1.14,1.14,0,0,1-.86.77A39.61,39.61,0,0,1,247.94,231.13Zm-44.87-19c22.15,17.06,42.39,17.13,49.14,16.57C247.1,224.39,230.94,213,203.07,212.09Z"/><path class="cls-1" d="M254.81,229.48s-29-14.22-41.74-56.22C249.59,197.61,254.81,229.48,254.81,229.48Z"/><path class="cls-1" d="M254.81,230.61a1.11,1.11,0,0,1-.5-.12c-.29-.14-29.58-14.91-42.33-56.91a1.14,1.14,0,0,1,1.72-1.27c19.06,12.72,29.52,27.5,34.94,37.66,5.89,11,7.23,19,7.29,19.32a1.12,1.12,0,0,1-.44,1.09A1.14,1.14,0,0,1,254.81,230.61Zm-39.66-54.55c10.76,32.2,31.27,47,38,51.15C251.11,219.59,242.83,195.65,215.15,176.06Z"/><path class="cls-1" d="M254.81,229.43s16.52-32,0-78.13C238.29,197.41,254.81,229.43,254.81,229.43Z"/><path class="cls-1" d="M254.81,230.56a1.11,1.11,0,0,1-1-.61c-.17-.33-16.56-33-.06-79a1.12,1.12,0,0,1,1.06-.75,1.13,1.13,0,0,1,1.07.75c8.61,24.05,8.15,44.22,6.25,56.92-2.07,13.79-6.14,21.79-6.31,22.12A1.13,1.13,0,0,1,254.81,230.56Zm0-75.79c-12.13,36.69-3.19,64,0,71.86C258,218.79,266.93,191.42,254.81,154.77Z"/><polygon class="cls-1" points="368.33 212.09 360.55 200.41 352.76 212.09 360.55 223.76 368.33 212.09"/></g></g></svg>